<svg width="512" height="512" viewBox="0 0 512 512" xmlns="http://www.w3.org/2000/svg">
  <rect width="512" height="512" rx="104" fill="#3a322e"/>
  <!-- Resplandor cálido -->
  <circle cx="380" cy="130" r="170" fill="#f4a900" opacity="0.16"/>
  <!-- Jarra de cerveza -->
  <g transform="translate(150 120)">
    <!-- Cuerpo -->
    <rect x="0" y="60" width="150" height="220" rx="26" fill="#f4a900"/>
    <!-- Cerveza más clara arriba -->
    <rect x="0" y="60" width="150" height="58" rx="26" fill="#f6dc8c"/>
    <!-- Espuma -->
    <g fill="#faf7f1">
      <circle cx="34" cy="58" r="30"/>
      <circle cx="78" cy="44" r="34"/>
      <circle cx="120" cy="58" r="28"/>
      <circle cx="58" cy="72" r="26"/>
      <circle cx="100" cy="72" r="24"/>
    </g>
    <!-- Asa -->
    <path d="M150 110 h44 a40 40 0 0 1 40 40 v40 a40 40 0 0 1 -40 40 h-44 v-34 h40 a8 8 0 0 0 8 -8 v-36 a8 8 0 0 0 -8 -8 h-40 z" fill="#d18a00"/>
    <!-- Brillo -->
    <rect x="22" y="130" width="16" height="120" rx="8" fill="#faf7f1" opacity="0.45"/>
  </g>
</svg>
